<mxfile modified="2021-05-25T17:08:52.932Z" host="app.diagrams.net" agent="5.0 (Windows NT 10.0; Win64; x64) AppleWebKit/537.36 (KHTML, like Gecko) Chrome/90.0.4430.212 Safari/537.36 Edg/90.0.818.62" etag="2sfXpWD5zR31ocoorgWe" version="14.6.13" type="github">
  <diagram id="WI9T0HZ2pTsCkuznbFz-" name="Page-1">
    <mxGraphModel dx="1320" dy="935" grid="1" gridSize="10" guides="1" tooltips="1" connect="1" arrows="1" fold="1" page="1" pageScale="1" pageWidth="1169" pageHeight="827" math="0" shadow="0">
      <root>
        <mxCell id="0" />
        <mxCell id="1" parent="0" />
        <mxCell id="dqUSffbzCzVpY2nCPNT2-16" value="" style="whiteSpace=wrap;html=1;fillColor=none;fontSize=14;" parent="1" vertex="1">
          <mxGeometry x="139.5" y="60" width="210.5" height="300" as="geometry" />
        </mxCell>
        <mxCell id="sysWO4AyaLhMZwriSP55-28" value="" style="whiteSpace=wrap;html=1;fillColor=none;fontSize=14;" vertex="1" parent="1">
          <mxGeometry x="134.75" y="375" width="210.5" height="240" as="geometry" />
        </mxCell>
        <mxCell id="sysWO4AyaLhMZwriSP55-27" value="" style="whiteSpace=wrap;html=1;fillColor=none;fontSize=14;" vertex="1" parent="1">
          <mxGeometry x="400" y="380" width="650" height="240" as="geometry" />
        </mxCell>
        <mxCell id="dqUSffbzCzVpY2nCPNT2-2" value="" style="whiteSpace=wrap;html=1;fillColor=none;fontSize=14;" parent="1" vertex="1">
          <mxGeometry x="1230" y="380" width="310" height="240" as="geometry" />
        </mxCell>
        <mxCell id="dqUSffbzCzVpY2nCPNT2-6" value="" style="whiteSpace=wrap;html=1;fillColor=none;fontSize=14;" parent="1" vertex="1">
          <mxGeometry x="400" y="60" width="430" height="300" as="geometry" />
        </mxCell>
        <mxCell id="sysWO4AyaLhMZwriSP55-1" value="maintenance-app" style="aspect=fixed;html=1;points=[];align=center;image;fontSize=14;image=img/lib/azure2/identity/App_Registrations.svg;" vertex="1" parent="1">
          <mxGeometry x="225.06" y="114" width="39.38" height="40" as="geometry" />
        </mxCell>
        <mxCell id="sysWO4AyaLhMZwriSP55-2" value="apim-aircrafts-apis-gateway" style="aspect=fixed;html=1;points=[];align=center;image;fontSize=14;image=img/lib/azure2/identity/App_Registrations.svg;" vertex="1" parent="1">
          <mxGeometry x="543" y="110" width="41.34" height="42" as="geometry" />
        </mxCell>
        <mxCell id="sysWO4AyaLhMZwriSP55-7" value="" style="aspect=fixed;html=1;points=[];align=center;image;fontSize=14;image=img/lib/azure2/integration/API_Management_Services.svg;" vertex="1" parent="1">
          <mxGeometry x="410" y="393" width="45.5" height="42" as="geometry" />
        </mxCell>
        <mxCell id="sysWO4AyaLhMZwriSP55-32" style="edgeStyle=orthogonalEdgeStyle;rounded=0;orthogonalLoop=1;jettySize=auto;html=1;entryX=0.019;entryY=0.373;entryDx=0;entryDy=0;entryPerimeter=0;fontSize=14;" edge="1" parent="1" source="sysWO4AyaLhMZwriSP55-9" target="sysWO4AyaLhMZwriSP55-24">
          <mxGeometry relative="1" as="geometry" />
        </mxCell>
        <mxCell id="sysWO4AyaLhMZwriSP55-9" value="GET ReadParts" style="shape=image;verticalLabelPosition=bottom;labelBackgroundColor=#ffffff;verticalAlign=top;aspect=fixed;imageAspect=0;image=data:image/svg+xml,PHN2ZyB4bWxuczpkYz0iaHR0cDovL3B1cmwub3JnL2RjL2VsZW1lbnRzLzEuMS8iIHhtbG5zOmNjPSJodHRwOi8vY3JlYXRpdmVjb21tb25zLm9yZy9ucyMiIHhtbG5zOnJkZj0iaHR0cDovL3d3dy53My5vcmcvMTk5OS8wMi8yMi1yZGYtc3ludGF4LW5zIyIgeG1sbnM6c3ZnPSJodHRwOi8vd3d3LnczLm9yZy8yMDAwL3N2ZyIgeG1sbnM9Imh0dHA6Ly93d3cudzMub3JnLzIwMDAvc3ZnIiB4bWxuczpzb2RpcG9kaT0iaHR0cDovL3NvZGlwb2RpLnNvdXJjZWZvcmdlLm5ldC9EVEQvc29kaXBvZGktMC5kdGQiIHhtbG5zOmlua3NjYXBlPSJodHRwOi8vd3d3Lmlua3NjYXBlLm9yZy9uYW1lc3BhY2VzL2lua3NjYXBlIiB2ZXJzaW9uPSIxLjEiIGlkPSJzdmc4NTkwMyIgaW5rc2NhcGU6dmVyc2lvbj0iMC45Mi4zICgyNDA1NTQ2LCAyMDE4LTAzLTExKSIgc29kaXBvZGk6ZG9jbmFtZT0icmVzdC5zdmciIHg9IjBweCIgeT0iMHB4IiB2aWV3Qm94PSIwIDAgMjkuNzIwMDAxIDI5LjcyMDAwMyIgeG1sOnNwYWNlPSJwcmVzZXJ2ZSIgd2lkdGg9IjI5LjcxOTk5OSIgaGVpZ2h0PSIyOS43MjAwMDEiPjxtZXRhZGF0YSBpZD0ibWV0YWRhdGE4ODIwIj48cmRmOlJERj48Y2M6V29yayByZGY6YWJvdXQ9IiI+PGRjOmZvcm1hdD5pbWFnZS9zdmcreG1sPC9kYzpmb3JtYXQ+PGRjOnR5cGUgcmRmOnJlc291cmNlPSJodHRwOi8vcHVybC5vcmcvZGMvZGNtaXR5cGUvU3RpbGxJbWFnZSIvPjxkYzp0aXRsZS8+PC9jYzpXb3JrPjwvcmRmOlJERj48L21ldGFkYXRhPjxkZWZzIGlkPSJkZWZzODgxOCI+JiN4YTsJJiN4YTsJJiN4YTsmI3hhOwkJJiN4YTsJCSYjeGE7CQkmI3hhOwkJJiN4YTsJJiN4YTsJCQkmI3hhOwkJCSYjeGE7CQkJJiN4YTsJCQkmI3hhOwkJCSYjeGE7CQkmI3hhOwkJCSYjeGE7CQkJJiN4YTsJCQkmI3hhOwkJJiN4YTsJCQkmI3hhOwkJCSYjeGE7CQkJJiN4YTsJCSYjeGE7CQkJCSYjeGE7CQkJJiN4YTsJCQkJJiN4YTsJCQkmI3hhOwkJCQkmI3hhOwkJCQkmI3hhOwkJCQkmI3hhOwkJCSYjeGE7CQkJCSYjeGE7CQkJCSYjeGE7CQkJCSYjeGE7CQkJJiN4YTsJCQkJJiN4YTsJCQkJJiN4YTsJCQkJJiN4YTsJCQkmI3hhOwkJCQkmI3hhOwkJCQkmI3hhOwkJCQkmI3hhOwkJCSYjeGE7CQkJCQkmI3hhOwkJCQkmI3hhOwkJCQkJJiN4YTsJCQkJJiN4YTsJCQkJCSYjeGE7CQkJCSYjeGE7CQkJCQkmI3hhOwkJCQkmI3hhOwkJCQkJJiN4YTsJCQkJJiN4YTsJCQkJCSYjeGE7CQkJCSYjeGE7CQkJCQkJJiN4YTsJCQkJCSYjeGE7CQkJCQkJJiN4YTsJCQkJCSYjeGE7CQkJCQkJJiN4YTsJCQkJCTwvZGVmcz4mI3hhOzxmaWx0ZXIgaWQ9ImZpbHRlcl8yIj4mI3hhOwk8ZmVHYXVzc2lhbkJsdXIgaWQ9ImZlR2F1c3NpYW5CbHVyODU4NDEiIHN0ZERldmlhdGlvbj0iMiIvPiYjeGE7PC9maWx0ZXI+JiN4YTs8c29kaXBvZGk6bmFtZWR2aWV3IGJvcmRlcmNvbG9yPSIjNjY2NjY2IiBib3JkZXJvcGFjaXR5PSIxIiBmaXQtbWFyZ2luLWJvdHRvbT0iMCIgZml0LW1hcmdpbi1sZWZ0PSIwIiBmaXQtbWFyZ2luLXJpZ2h0PSIwIiBmaXQtbWFyZ2luLXRvcD0iMCIgZ3JpZHRvbGVyYW5jZT0iMTAiIGd1aWRldG9sZXJhbmNlPSIxMCIgaWQ9Im5hbWVkdmlldzg1OTA1IiBpbmtzY2FwZTpjdXJyZW50LWxheWVyPSJzdmc4NTkwMyIgaW5rc2NhcGU6Y3g9IjEzLjk2NzQ5NCIgaW5rc2NhcGU6Y3k9IjguODczMTQ4IiBpbmtzY2FwZTpwYWdlb3BhY2l0eT0iMCIgaW5rc2NhcGU6cGFnZXNoYWRvdz0iMiIgaW5rc2NhcGU6d2luZG93LWhlaWdodD0iMTAxNyIgaW5rc2NhcGU6d2luZG93LW1heGltaXplZD0iMSIgaW5rc2NhcGU6d2luZG93LXdpZHRoPSIxOTIwIiBpbmtzY2FwZTp3aW5kb3cteD0iLTgiIGlua3NjYXBlOndpbmRvdy15PSItOCIgaW5rc2NhcGU6em9vbT0iMTMuNzQwOTg4IiBvYmplY3R0b2xlcmFuY2U9IjEwIiBwYWdlY29sb3I9IiNmZmZmZmYiIHNob3dncmlkPSJmYWxzZSI+JiN4YTsJPC9zb2RpcG9kaTpuYW1lZHZpZXc+JiN4YTs8Y2lyY2xlIHI9IjE0Ljg2IiBjeT0iMTQuODYiIGN4PSIxNC44NiIgc3R5bGU9ImZpbGw6IzEwN2MxMCIgaWQ9ImVsbGlwc2U4NTg1NCIvPjxwYXRoIGQ9Ik0gNC41NzAwMDAxLDQuMTYwMDAwOSBDIDEuNzUwMDAwMSw2Ljg3MDAwMDkgOS4wNjM3MjA5ZS04LDEwLjY2MDAwMSA5LjA2MzcyMDllLTgsMTQuODYwMDAxIGMgMCw4LjIxIDYuNjUwMDAwMDA5MzYyNzkxLDE0Ljg2IDE0Ljg1OTk5OTkwOTM2Mjc4OSwxNC44NiA0LjIsMCA3Ljk5LC0xLjc0IDEwLjcsLTQuNTcgeiIgc3R5bGU9ImZpbGw6IzAwNGIxYyIgaW5rc2NhcGU6Y29ubmVjdG9yLWN1cnZhdHVyZT0iMCIgaWQ9InBhdGg4NTg2MiIvPjxwYXRoIGlkPSJwYXRoODU4NzIiIGlua3NjYXBlOmNvbm5lY3Rvci1jdXJ2YXR1cmU9IjAiIHN0eWxlPSJmaWxsOiNmZmZmZmYiIGQ9Im0gOS4wNDA4MjAxLDE4Ljc1OTQ5IGggLTEuMDkgbCAtMS4zMSwtMi4xOSBjIC0wLjEyLC0wLjIgLTAuMjQsLTAuMzcgLTAuMzUsLTAuNTIgLTAuMTEsLTAuMTQgLTAuMjMsLTAuMjYgLTAuMzQsLTAuMzUgLTAuMTIsLTAuMDkgLTAuMjUsLTAuMTUgLTAuMzgsLTAuMiAtMC4xNCwtMC4wNCAtMC4yOSwtMC4wNiAtMC40NiwtMC4wNiBoIC0wLjc2IHYgMy4zMiBoIC0wLjkxIHYgLTcuOCBoIDIuMzMgYyAwLjM0LDAgMC42NiwwLjA0IDAuOTQsMC4xMiAwLjI5LDAuMDkgMC41NCwwLjIyIDAuNzYsMC4zOSAwLjIxLDAuMTggMC4zNywwLjM5IDAuNDksMC42NSAwLjEyLDAuMjYgMC4xOCwwLjU3IDAuMTgsMC45MiAwLDAuMjcgLTAuMDQsMC41MiAtMC4xMiwwLjc0IC0wLjA4LDAuMjMgLTAuMiwwLjQzIC0wLjM1LDAuNjEgLTAuMTUsMC4xOCAtMC4zMywwLjMzIC0wLjU0LDAuNDYgLTAuMjEsMC4xMiAtMC40NSwwLjIyIC0wLjcyLDAuMjkgdiAwLjAyIGMgMC4xMywwLjA2IDAuMjUsMC4xMiAwLjM0LDAuMiAwLjEsMC4wNyAwLjE5LDAuMTYgMC4yOCwwLjI2IDAuMDgsMC4xIDAuMTcsMC4yMiAwLjI2LDAuMzUgMC4wOCwwLjEzIDAuMTgsMC4yOCAwLjI4LDAuNDUgeiBtIC00LjY5LC02Ljk4IHYgMi44MyBoIDEuMjUgYyAwLjIyLDAgMC40NCwtMC4wMyAwLjYzLC0wLjEgMC4xOSwtMC4wNyAwLjM2LC0wLjE3IDAuNSwtMC4zIDAuMTQsLTAuMTIgMC4yNiwtMC4yOCAwLjM0LC0wLjQ3IDAuMDgsLTAuMTkgMC4xMiwtMC40IDAuMTIsLTAuNjMgMCwtMC40MiAtMC4xNCwtMC43NCAtMC40MSwtMC45NyAtMC4yNywtMC4yNCAtMC42NiwtMC4zNiAtMS4xNywtMC4zNiB6Ii8+PHBhdGggaWQ9InBhdGg4NTg4MCIgaW5rc2NhcGU6Y29ubmVjdG9yLWN1cnZhdHVyZT0iMCIgc3R5bGU9ImZpbGw6I2ZmZmZmZiIgZD0ibSAxNC4yNDg4MSwxOC43NTk0OSBoIC00LjE0IHYgLTcuOCBoIDMuOTYgdiAwLjgyIGggLTMuMDUgdiAyLjYgaCAyLjgyIHYgMC44MiBoIC0yLjgyIHYgMi43MyBoIDMuMjMgeiIvPjxwYXRoIGlkPSJwYXRoODU4ODgiIGlua3NjYXBlOmNvbm5lY3Rvci1jdXJ2YXR1cmU9IjAiIHN0eWxlPSJmaWxsOiNmZmZmZmYiIGQ9Im0gMTUuMzgzMDIsMTguNDQxNDAxIHYgLTEuMDcgYyAwLjEyLDAuMTEgMC4yNywwLjIgMC40NCwwLjI5IDAuMTgsMC4wOSAwLjM2LDAuMTYgMC41NSwwLjIyIDAuMTksMC4wNiAwLjM4LDAuMTEgMC41NywwLjE0IDAuMTksMC4wMyAwLjM3LDAuMDUgMC41NCwwLjA1IDAuNTYsMCAwLjk4LC0wLjExIDEuMjYsLTAuMzEgMC4yNywtMC4yMSAwLjQxLC0wLjUxIDAuNDEsLTAuOSAwLC0wLjIyIC0wLjA0LC0wLjQgLTAuMTQsLTAuNTUgLTAuMDksLTAuMTYgLTAuMjIsLTAuMyAtMC4zOCwtMC40MyAtMC4xNiwtMC4xMyAtMC4zNiwtMC4yNSAtMC41OCwtMC4zNyAtMC4yMiwtMC4xMiAtMC40NiwtMC4yNCAtMC43MiwtMC4zNyAtMC4yNywtMC4xNCAtMC41MywtMC4yOCAtMC43NiwtMC40MiAtMC4yNCwtMC4xNSAtMC40NCwtMC4zIC0wLjYyLC0wLjQ3IC0wLjE3LC0wLjE3IC0wLjMxLC0wLjM3IC0wLjQxLC0wLjU4IC0wLjEsLTAuMjIgLTAuMTUsLTAuNDcgLTAuMTUsLTAuNzYgMCwtMC4zNiAwLjA4LC0wLjY3IDAuMjMsLTAuOTMgMC4xNiwtMC4yNiAwLjM3LC0wLjQ4IDAuNjIsLTAuNjUgMC4yNSwtMC4xNyAwLjU0LC0wLjMgMC44NywtMC4zOCAwLjMyLC0wLjA4IDAuNjUsLTAuMTMgMC45OSwtMC4xMyAwLjc3LDAgMS4zMywwLjEgMS42OCwwLjI4IHYgMS4wMyBjIC0wLjQ2LC0wLjMyIC0xLjA1LC0wLjQ4IC0xLjc3LC0wLjQ4IC0wLjIsMCAtMC40LDAuMDIgLTAuNiwwLjA2IC0wLjIsMC4wNSAtMC4zOCwwLjExIC0wLjUzLDAuMjEgLTAuMTYsMC4wOSAtMC4yOSwwLjIxIC0wLjM4LDAuMzYgLTAuMSwwLjE1IC0wLjE1LDAuMzMgLTAuMTUsMC41NSAwLDAuMiAwLjA0LDAuMzcgMC4xMSwwLjUxIDAuMDcsMC4xNSAwLjE4LDAuMjggMC4zMywwLjQgMC4xNCwwLjEyIDAuMzIsMC4yNCAwLjUzLDAuMzUgMC4yMSwwLjExIDAuNDUsMC4yNCAwLjcyLDAuMzcgMC4yOCwwLjE0IDAuNTUsMC4yOCAwLjgsMC40NCAwLjI1LDAuMTUgMC40NywwLjMyIDAuNjUsMC41IDAuMTksMC4xOSAwLjM0LDAuMzkgMC40NSwwLjYyIDAuMTEsMC4yMiAwLjE3LDAuNDggMC4xNywwLjc3IDAsMC4zOSAtMC4wOCwwLjcxIC0wLjIzLDAuOTggLTAuMTUsMC4yNiAtMC4zNSwwLjQ4IC0wLjYxLDAuNjUgLTAuMjUsMC4xNiAtMC41NSwwLjI5IC0wLjg4LDAuMzYgLTAuMzMsMC4wNyAtMC42OSwwLjExIC0xLjA2LDAuMTEgLTAuMTIsMCAtMC4yNywtMC4wMSAtMC40NSwtMC4wMyAtMC4xOSwtMC4wMiAtMC4zNywtMC4wNSAtMC41NiwtMC4wOSAtMC4xOSwtMC4wMyAtMC4zNywtMC4wOCAtMC41NCwtMC4xNCAtMC4xNiwtMC4wNSAtMC4zLC0wLjEyIC0wLjQsLTAuMTkgeiIvPjxwYXRoIGlkPSJwYXRoODU4OTYiIGlua3NjYXBlOmNvbm5lY3Rvci1jdXJ2YXR1cmU9IjAiIHN0eWxlPSJmaWxsOiNmZmZmZmYiIGQ9Im0gMjYuMjg5NzIsMTEuNzc5NDkgaCAtMi4yNiB2IDYuOTggaCAtMC45MSB2IC02Ljk4IGggLTIuMjUgdiAtMC44MiBoIDUuNDIgeiIvPiYjeGE7PC9zdmc+;fontSize=14;" vertex="1" parent="1">
          <mxGeometry x="633" y="480" width="30" height="30" as="geometry" />
        </mxCell>
        <mxCell id="sysWO4AyaLhMZwriSP55-12" value="" style="shape=image;verticalLabelPosition=bottom;labelBackgroundColor=#ffffff;verticalAlign=top;aspect=fixed;imageAspect=0;image=data:image/svg+xml,PHN2ZyB4bWxuczpkYz0iaHR0cDovL3B1cmwub3JnL2RjL2VsZW1lbnRzLzEuMS8iIHhtbG5zOmNjPSJodHRwOi8vY3JlYXRpdmVjb21tb25zLm9yZy9ucyMiIHhtbG5zOnJkZj0iaHR0cDovL3d3dy53My5vcmcvMTk5OS8wMi8yMi1yZGYtc3ludGF4LW5zIyIgeG1sbnM6c3ZnPSJodHRwOi8vd3d3LnczLm9yZy8yMDAwL3N2ZyIgeG1sbnM9Imh0dHA6Ly93d3cudzMub3JnLzIwMDAvc3ZnIiB4bWxuczpzb2RpcG9kaT0iaHR0cDovL3NvZGlwb2RpLnNvdXJjZWZvcmdlLm5ldC9EVEQvc29kaXBvZGktMC5kdGQiIHhtbG5zOmlua3NjYXBlPSJodHRwOi8vd3d3Lmlua3NjYXBlLm9yZy9uYW1lc3BhY2VzL2lua3NjYXBlIiB2ZXJzaW9uPSIxLjEiIGlkPSJzdmcxMTEyNyIgaW5rc2NhcGU6dmVyc2lvbj0iMC45Mi4zICgyNDA1NTQ2LCAyMDE4LTAzLTExKSIgc29kaXBvZGk6ZG9jbmFtZT0id2ViX2FwcHMuc3ZnIiB4PSIwcHgiIHk9IjBweCIgdmlld0JveD0iMCAwIDUxLjAyOTMxNiA1MS4wMTk5OTkiIHhtbDpzcGFjZT0icHJlc2VydmUiIHdpZHRoPSI1MS4wMjkzMTYiIGhlaWdodD0iNTEuMDIiPjxtZXRhZGF0YSBpZD0ibWV0YWRhdGExMjM5MiI+PHJkZjpSREY+PGNjOldvcmsgcmRmOmFib3V0PSIiPjxkYzpmb3JtYXQ+aW1hZ2Uvc3ZnK3htbDwvZGM6Zm9ybWF0PjxkYzp0eXBlIHJkZjpyZXNvdXJjZT0iaHR0cDovL3B1cmwub3JnL2RjL2RjbWl0eXBlL1N0aWxsSW1hZ2UiLz48ZGM6dGl0bGUvPjwvY2M6V29yaz48L3JkZjpSREY+PC9tZXRhZGF0YT48ZGVmcyBpZD0iZGVmczEyMzkwIj4mI3hhOwkmI3hhOwkmI3hhOyYjeGE7CQkmI3hhOwkJJiN4YTsJCSYjeGE7CSYjeGE7CQkJJiN4YTsJCQkmI3hhOwkJCSYjeGE7CQkmI3hhOwkJCSYjeGE7CQkJJiN4YTsJCQkmI3hhOwkJJiN4YTsJCQkJJiN4YTsJCQkmI3hhOwkJCQkmI3hhOwkJCSYjeGE7CQkJCQkmI3hhOwkJCQkmI3hhOwkJCQkJJiN4YTsJCQkJPC9kZWZzPiYjeGE7PGZpbHRlciBpZD0iZmlsdGVyXzIiPiYjeGE7CTxmZUdhdXNzaWFuQmx1ciBpZD0iZmVHYXVzc2lhbkJsdXIxMTEwMCIgc3RkRGV2aWF0aW9uPSIyIi8+JiN4YTs8L2ZpbHRlcj4mI3hhOzxzb2RpcG9kaTpuYW1lZHZpZXcgYm9yZGVyY29sb3I9IiM2NjY2NjYiIGJvcmRlcm9wYWNpdHk9IjEiIGZpdC1tYXJnaW4tYm90dG9tPSIwIiBmaXQtbWFyZ2luLWxlZnQ9IjAiIGZpdC1tYXJnaW4tcmlnaHQ9IjAiIGZpdC1tYXJnaW4tdG9wPSIwIiBncmlkdG9sZXJhbmNlPSIxMCIgZ3VpZGV0b2xlcmFuY2U9IjEwIiBpZD0ibmFtZWR2aWV3MTExMjkiIGlua3NjYXBlOmN1cnJlbnQtbGF5ZXI9InN2ZzExMTI3IiBpbmtzY2FwZTpjeD0iMzQuNTc5OTYxIiBpbmtzY2FwZTpjeT0iMzMuNzcwNzQ2IiBpbmtzY2FwZTpwYWdlb3BhY2l0eT0iMCIgaW5rc2NhcGU6cGFnZXNoYWRvdz0iMiIgaW5rc2NhcGU6d2luZG93LWhlaWdodD0iMTAxNyIgaW5rc2NhcGU6d2luZG93LW1heGltaXplZD0iMSIgaW5rc2NhcGU6d2luZG93LXdpZHRoPSIxOTIwIiBpbmtzY2FwZTp3aW5kb3cteD0iLTgiIGlua3NjYXBlOndpbmRvdy15PSItOCIgaW5rc2NhcGU6em9vbT0iOC42MTMxNjY5IiBvYmplY3R0b2xlcmFuY2U9IjEwIiBwYWdlY29sb3I9IiNmZmZmZmYiIHNob3dncmlkPSJmYWxzZSI+JiN4YTsJPC9zb2RpcG9kaTpuYW1lZHZpZXc+JiN4YTs8cGF0aCBkPSJtIDQxLjAxNDUyNiw0NS43NiBjIC00LjYyLDMuNTMgLTEwLjA3LDUuMjYgLTE1LjQ3LDUuMjYgLTcuNjgsMCAtMTUuMjcsLTMuNDUgLTIwLjI3OTk5OTYsLTEwLjAxIEMgLTMuMzA1NDc0LDI5LjgyIC0xLjE5NTQ3NCwxMy44MyAxMC4wMTQ1MjYsNS4yNSBjIDQuNjIsLTMuNTUgMTAuMDgsLTUuMjUgMTUuNDgsLTUuMjUgNy42NywwIDE1LjI2LDMuNDUgMjAuMjgsMTAuMDEgOC41NywxMS4xOCA2LjQzLDI3LjE5IC00Ljc2LDM1Ljc1IHoiIHN0eWxlPSJmaWxsOiM1OWI0ZDkiIGlua3NjYXBlOmNvbm5lY3Rvci1jdXJ2YXR1cmU9IjAiIGlkPSJwYXRoMTExMTMiLz48cGF0aCBkPSJtIDM2LjMzMTI3NiwyOS45ODI5NyBjIDEuODUsMi40MSA1LjI5LDIuODUgNy43LDEuMDIgMC4xMiwtMC4wOSAwLjIyLC0wLjIxIDAuMzMsLTAuMzEgMi40NiwxLjczIDQuMTcsMi44NyA1LjEzLDMuNTMgMC4yOCwtMC43NCAwLjQ4LC0xLjQ1IDAuNjgsLTIuMTkgLTEuMDEsLTAuNzYgLTIuMzksLTEuODEgLTQuMzcsLTMuNDIgMC42NSwtMS43MiAwLjQ0LC0zLjcyIC0wLjc1LC01LjI4IC0xLjcsLTIuMjEgLTQuNzIsLTIuNzcgLTcuMDgsLTEuNDEgLTIuNiwtMi4zMyAtNS40NSwtNSAtOC40NiwtNy45OSA5LjM1LC01LjAzIDE2LC00LjI5IDE2LC00LjI5IC0xLjExLC0xLjQyIC0yLjM2LC0yLjY2IC0zLjY4LC0zLjc4IC0zLjk1LC0wLjYxIC0xMC4wNywtMC41NCAtMTcuMDcsMy4xOSBsIC0wLjAxLC0wLjAxIHYgMCBjIC0yLjMzLC0yLjQ0IC00LjcxLC01LjA2IC03LjEyLC03Ljg3IC0xLjE2LDAuMzcgLTIuMjksMC44MyAtMy4zOCwxLjM4IDEuNzgsMi45MiA0LjE4LDUuODcgNi44OSw4Ljc0IDAsMC4wMSAwLjAxLDAuMDEgMC4wMiwwLjAyIC0yLjI2LDEuNTcgLTQuNzcsMy42OCAtNy4wOSw2LjEzIC0wLjMsMC4zMiAtMC41OCwwLjY0IC0wLjg2LDAuOTUgLTEuMzgsLTAuMjkgLTIuODQsLTAuMiAtNC4xOTk5OTk2LDAuMjkgLTIuMzEsLTQuOTggLTIuMTMsLTguOTkgLTEuNzYsLTExLjA1IC0xLDEuMDUgLTEuOTQsMi4xNSAtMi43NTAwMDA0LDMuMzMgLTAuNiwyLjQ3IC0wLjc3LDYuMDIgMS4wMTAwMDA0LDEwLjMgLTIuMDYwMDAwNCwyLjcgLTIuMTYwMDAwNCw2LjUyIC0wLjAxLDkuMzUgMC4xOCwwLjIzIDAuMzcsMC40NSAwLjU3LDAuNjUgLTAuOTQwMDAwNCwzLjIgLTEuMzYwMDAwNCw2LjI5IC0xLjQ5MDAwMDQsOC45NCAwLjI0LDAuMzMgMC4yNCwwLjYgMC40OCwwLjkyIDEuMjMwMDAwNCwxLjU3IDIuNzYwMDAwNCwyLjg5IDQuMjUwMDAwNCw0LjA5IC0wLjE4LC0yLjgxIDAuMDEsLTYuOTUgMS43NDk5OTk2LC0xMS42MSAxLjIsMC4wOSAyLjQxLC0wLjA5IDMuNTUsLTAuNTcgMC42NiwwLjU3IDEuMzQsMS4xNSAyLjA3LDEuNzQgMi41LDEuOTggNSwzLjUzIDcuNDMsNC43NCAtMC4xMiwxLjI0IDAuMTksMi41MiAwLjk5LDMuNTkgMS43MiwyLjIyIDQuOTEsMi42NCA3LjEzLDAuOTQgMC40NiwtMC4zNiAwLjgzLC0wLjc4IDEuMTMsLTEuMjQgMy45NywwLjg4IDcuNDQsMS4wNCAxMC4wMSwxLjA0IDAuMzksMCAyLjIyLC0yLjQ5IDMuMjYsLTQuMDMgLTEuNTYsMC4zMyAtNi4yLDAuOTcgLTEyLjU1LC0wLjg2IC0wLjE1LC0wLjcxIC0wLjQ0LC0xLjQgLTAuOTEsLTIuMDIgLTEuNjIsLTIuMTEgLTQuNTYsLTIuNTcgLTYuNzYsLTEuMTUgLTIuMiwtMS4yIC00LjUxLC0yLjcgLTYuODksLTQuNTkgLTAuNDgsLTAuMzggLTAuOTUsLTAuNzYgLTEuMzksLTEuMTQgMS40NSwtMi4yOSAxLjYxLC01LjIzIDAuMzIsLTcuNyAwLjMsLTAuMjkgMC41OCwtMC41OSAwLjg5LC0wLjg4IDIuMzYsLTIuMiA0LjU4LC0zLjk2IDYuNjYsLTUuMzggLTAuMDksLTAuMDggLTAuMTYsLTAuMTYgLTAuMjUsLTAuMjQgMC4wOSwwLjA4IDAuMTYsMC4xNiAwLjI1LDAuMjQgdiAwIGMgMy4xOCwyLjk0IDYuNTYsNS43MyA5Ljc2LDguMjMgLTAuODUsMS43OSAtMC43MiwzLjk4IDAuNTcsNS42NiB6IiBzdHlsZT0iZmlsbDojZmZmZmZmIiBpbmtzY2FwZTpjb25uZWN0b3ItY3VydmF0dXJlPSIwIiBpZD0icGF0aDExMTIxIi8+JiN4YTs8L3N2Zz4=;fontSize=14;" vertex="1" parent="1">
          <mxGeometry x="150" y="380" width="40" height="40" as="geometry" />
        </mxCell>
        <mxCell id="sysWO4AyaLhMZwriSP55-13" value="Maintenance Application" style="text;html=1;resizable=0;autosize=1;align=center;verticalAlign=middle;points=[];fillColor=none;strokeColor=none;rounded=0;fontSize=14;" vertex="1" parent="1">
          <mxGeometry x="159.75" y="580" width="170" height="20" as="geometry" />
        </mxCell>
        <mxCell id="sysWO4AyaLhMZwriSP55-15" value="&lt;span style=&quot;color: rgb(0 , 0 , 0) ; font-size: 16px ; font-style: normal ; font-weight: 400 ; letter-spacing: normal ; text-indent: 0px ; text-transform: none ; word-spacing: 0px ; background-color: rgb(255 , 255 , 255) ; display: inline ; float: none&quot;&gt;&lt;u&gt;Application ID URI:&lt;/u&gt; api://contoso1media/aircrafts-apis-publisher&lt;/span&gt;" style="text;whiteSpace=wrap;html=1;fontSize=14;" vertex="1" parent="1">
          <mxGeometry x="478" y="180" width="340" height="30" as="geometry" />
        </mxCell>
        <mxCell id="sysWO4AyaLhMZwriSP55-16" value="Role: &lt;font color=&quot;#0000ff&quot;&gt;Role.Parts.AllowRead&lt;/font&gt;" style="text;html=1;resizable=0;autosize=1;align=center;verticalAlign=middle;points=[];fillColor=none;strokeColor=none;rounded=0;fontSize=14;" vertex="1" parent="1">
          <mxGeometry x="490" y="280" width="190" height="20" as="geometry" />
        </mxCell>
        <mxCell id="sysWO4AyaLhMZwriSP55-17" style="edgeStyle=orthogonalEdgeStyle;rounded=0;orthogonalLoop=1;jettySize=auto;html=1;exitX=0.5;exitY=1;exitDx=0;exitDy=0;fontSize=14;" edge="1" parent="1" source="dqUSffbzCzVpY2nCPNT2-6" target="dqUSffbzCzVpY2nCPNT2-6">
          <mxGeometry relative="1" as="geometry" />
        </mxCell>
        <mxCell id="sysWO4AyaLhMZwriSP55-18" value="&lt;u&gt;API Permission:&lt;/u&gt;&lt;br&gt;&lt;font color=&quot;#0000ff&quot;&gt;apim-aircrafts-api-gateway&lt;br&gt;- Role.Parts.AllowRead&lt;/font&gt;" style="text;html=1;resizable=0;autosize=1;align=center;verticalAlign=middle;points=[];fillColor=none;strokeColor=none;rounded=0;fontSize=14;" vertex="1" parent="1">
          <mxGeometry x="154.75" y="198" width="180" height="60" as="geometry" />
        </mxCell>
        <mxCell id="sysWO4AyaLhMZwriSP55-21" style="edgeStyle=orthogonalEdgeStyle;rounded=0;orthogonalLoop=1;jettySize=auto;html=1;entryX=0;entryY=0.5;entryDx=0;entryDy=0;fontSize=14;" edge="1" parent="1" source="sysWO4AyaLhMZwriSP55-19" target="sysWO4AyaLhMZwriSP55-20">
          <mxGeometry relative="1" as="geometry" />
        </mxCell>
        <mxCell id="sysWO4AyaLhMZwriSP55-19" value="" style="shape=image;verticalLabelPosition=bottom;labelBackgroundColor=#ffffff;verticalAlign=top;aspect=fixed;imageAspect=0;image=data:image/svg+xml,PHN2ZyB4bWxuczpjYz0iaHR0cDovL2NyZWF0aXZlY29tbW9ucy5vcmcvbnMjIiB4bWxuczpkYz0iaHR0cDovL3B1cmwub3JnL2RjL2VsZW1lbnRzLzEuMS8iIHhtbG5zOmlua3NjYXBlPSJodHRwOi8vd3d3Lmlua3NjYXBlLm9yZy9uYW1lc3BhY2VzL2lua3NjYXBlIiB4bWxuczpyZGY9Imh0dHA6Ly93d3cudzMub3JnLzE5OTkvMDIvMjItcmRmLXN5bnRheC1ucyMiIHhtbG5zOnNvZGlwb2RpPSJodHRwOi8vc29kaXBvZGkuc291cmNlZm9yZ2UubmV0L0RURC9zb2RpcG9kaS0wLmR0ZCIgeG1sbnM6c3ZnPSJodHRwOi8vd3d3LnczLm9yZy8yMDAwL3N2ZyIgeG1sbnM9Imh0dHA6Ly93d3cudzMub3JnLzIwMDAvc3ZnIiB4bWxuczp4bGluaz0iaHR0cDovL3d3dy53My5vcmcvMTk5OS94bGluayIgdmVyc2lvbj0iMS4xIiBpZD0ic3ZnMTcwNzg2IiBpbmtzY2FwZTp2ZXJzaW9uPSIwLjkyLjMgKDI0MDU1NDYsIDIwMTgtMDMtMTEpIiBzb2RpcG9kaTpkb2NuYW1lPSJkb3RuZXRfY29yZS5zdmciIHg9IjBweCIgeT0iMHB4IiB2aWV3Qm94PSIwIDAgNDggNDgiIHN0eWxlPSJlbmFibGUtYmFja2dyb3VuZDpuZXcgMCAwIDQ4IDQ4OyIgeG1sOnNwYWNlPSJwcmVzZXJ2ZSI+JiN4YTs8c29kaXBvZGk6bmFtZWR2aWV3IGJvcmRlcmNvbG9yPSIjNjY2NjY2IiBib3JkZXJvcGFjaXR5PSIxIiBmaXQtbWFyZ2luLWJvdHRvbT0iMCIgZml0LW1hcmdpbi1sZWZ0PSIwIiBmaXQtbWFyZ2luLXJpZ2h0PSIwIiBmaXQtbWFyZ2luLXRvcD0iMCIgZ3JpZHRvbGVyYW5jZT0iMTAiIGd1aWRldG9sZXJhbmNlPSIxMCIgaWQ9Im5hbWVkdmlldzE3MDc4OCIgaW5rc2NhcGU6Y3VycmVudC1sYXllcj0ic3ZnMTcwNzg2IiBpbmtzY2FwZTpjeD0iMzEuNTU0NjA5IiBpbmtzY2FwZTpjeT0iMzEuNTU0NjA2IiBpbmtzY2FwZTpwYWdlb3BhY2l0eT0iMCIgaW5rc2NhcGU6cGFnZXNoYWRvdz0iMiIgaW5rc2NhcGU6d2luZG93LWhlaWdodD0iMTAxNyIgaW5rc2NhcGU6d2luZG93LW1heGltaXplZD0iMSIgaW5rc2NhcGU6d2luZG93LXdpZHRoPSIxOTIwIiBpbmtzY2FwZTp3aW5kb3cteD0iLTgiIGlua3NjYXBlOndpbmRvdy15PSItOCIgaW5rc2NhcGU6em9vbT0iMTIuOTYxNDQ1IiBvYmplY3R0b2xlcmFuY2U9IjEwIiBwYWdlY29sb3I9IiNmZmZmZmYiIHNob3dncmlkPSJmYWxzZSI+JiN4YTsJPC9zb2RpcG9kaTpuYW1lZHZpZXc+JiN4YTs8Y2lyY2xlIGlkPSJlbGxpcHNlMTcwNzM1IiBzdHlsZT0iZmlsbDojNUMyRDkxOyIgY3g9IjI0IiBjeT0iMjQiIHI9IjI0Ii8+JiN4YTs8cGF0aCBpZD0icGF0aDE3MDc0MCIgaW5rc2NhcGU6Y29ubmVjdG9yLWN1cnZhdHVyZT0iMCIgc3R5bGU9ImZpbGw6I0ZGRkZGRjtmaWxsLW9wYWNpdHk6MC4wOTg7IiBkPSJNNy4zNiw2Ljc1ICBDLTIuNTMsMTUuNTctMy40LDMwLjc0LDUuNDIsNDAuNjRTMjkuNDEsNTEuNCwzOS4zLDQyLjU4YzAuNjktMC42MSwxLjM0LTEuMjYsMS45NS0xLjk1TDcuMzYsNi43NXoiLz4mI3hhOzxwYXRoIGlkPSJwYXRoMTcwNzQ1IiBpbmtzY2FwZTpjb25uZWN0b3ItY3VydmF0dXJlPSIwIiBzdHlsZT0iZmlsbDojRkZGRkZGOyIgZD0iTTUuNTUsMjcuOTRjLTAuMjgsMC0wLjU2LTAuMTEtMC43NS0wLjMyICBjLTAuMi0wLjItMC4zMS0wLjQ3LTAuMzEtMC43NWMwLTAuMjgsMC4xMS0wLjU1LDAuMzEtMC43NUM1LDI1LjkxLDUuMjcsMjUuOCw1LjU1LDI1LjhjMC4yOCwwLDAuNTUsMC4xMSwwLjc1LDAuMzIgIGMwLjIsMC4yLDAuMzEsMC40NywwLjMxLDAuNzVjMCwwLjI4LTAuMTEsMC41NS0wLjMxLDAuNzVDNi4xMSwyNy44Miw1Ljg0LDI3Ljk0LDUuNTUsMjcuOTR6Ii8+JiN4YTs8cGF0aCBpZD0icGF0aDE3MDc1MCIgaW5rc2NhcGU6Y29ubmVjdG9yLWN1cnZhdHVyZT0iMCIgc3R5bGU9ImZpbGw6I0ZGRkZGRjsiIGQ9Ik0yMC40NSwyNy43NWgtMS45N2wtNy4wMi0xMC45MSAgYy0wLjE4LTAuMjctMC4zMi0wLjU1LTAuNDQtMC44NWgtMC4wNmMwLjA3LDAuNjIsMC4wOSwxLjI1LDAuMDgsMS44N3Y5Ljg5aC0xLjZWMTQuMDhoMi4wOGw2Ljg0LDEwLjcxICBjMC4yOCwwLjQ0LDAuNDcsMC43NSwwLjU1LDAuOTFoMC4wNGMtMC4wOC0wLjY3LTAuMTEtMS4zNC0wLjEtMi4wMXYtOS42MWgxLjZWMjcuNzV6Ii8+JiN4YTs8cGF0aCBpZD0icGF0aDE3MDc1NSIgaW5rc2NhcGU6Y29ubmVjdG9yLWN1cnZhdHVyZT0iMCIgc3R5bGU9ImZpbGw6I0ZGRkZGRjsiIGQ9Ik0zMS4yNywyNy43NUgyNFYxNC4wOGg2LjkzdjEuNDRoLTUuM3Y0LjU1aDQuOTQgIHYxLjQ0aC00Ljk0djQuNzRoNS42NEwzMS4yNywyNy43NXoiLz4mI3hhOzxwYXRoIGlkPSJwYXRoMTcwNzYwIiBpbmtzY2FwZTpjb25uZWN0b3ItY3VydmF0dXJlPSIwIiBzdHlsZT0iZmlsbDojRkZGRkZGOyIgZD0iTTQyLDE1LjUyaC0zLjk3djEyLjIzaC0xLjZWMTUuNTJIMzIuNXYtMS40NEg0MiAgVjE1LjUyeiIvPiYjeGE7PHBhdGggaWQ9InBhdGgxNzA3NjUiIGlua3NjYXBlOmNvbm5lY3Rvci1jdXJ2YXR1cmU9IjAiIHN0eWxlPSJmaWxsOiNGMkYyRjI7IiBkPSJNMTkuNTksMzcuMDVjLTAuNTQsMC4yNi0xLjE0LDAuMzktMS43NCwwLjM3ICBjLTAuODEsMC4wNC0xLjU5LTAuMjgtMi4xNS0wLjg2Yy0wLjU1LTAuNjItMC44NC0xLjQyLTAuODEtMi4yNWMtMC4wNC0wLjkxLDAuMjktMS43OSwwLjkxLTIuNDVjMC42MS0wLjYyLDEuNDQtMC45NiwyLjMxLTAuOTMgIGMwLjUxLTAuMDIsMS4wMiwwLjA3LDEuNSwwLjI2djAuNzVjLTAuNDYtMC4yNS0wLjk4LTAuMzgtMS41LTAuMzdjLTAuNjctMC4wMi0xLjMyLDAuMjUtMS43NywwLjc1Yy0wLjQ2LDAuNTMtMC43LDEuMjItMC42NywxLjkzICBjLTAuMDQsMC42NywwLjE5LDEuMzMsMC42MywxLjg0YzAuNDMsMC40NiwxLjAzLDAuNzEsMS42NiwwLjY4YzAuNTgsMC4wMSwxLjE0LTAuMTMsMS42NC0wLjQyTDE5LjU5LDM3LjA1eiIvPiYjeGE7PHBhdGggaWQ9InBhdGgxNzA3NzAiIGlua3NjYXBlOmNvbm5lY3Rvci1jdXJ2YXR1cmU9IjAiIHN0eWxlPSJmaWxsOiNGMkYyRjI7IiBkPSJNMjIuNjYsMzcuNDJjLTAuNjEsMC4wMi0xLjE5LTAuMjItMS42LTAuNjcgIGMtMC40MS0wLjQ2LTAuNjItMS4wNi0wLjU5LTEuNjdjLTAuMDQtMC42NSwwLjE4LTEuMjksMC42Mi0xLjc3YzAuNDQtMC40MywxLjA1LTAuNjcsMS42Ny0wLjY0YzAuNTktMC4wMywxLjE2LDAuMTksMS41NywwLjYyICBjMC40LDAuNDgsMC42LDEuMSwwLjU2LDEuNzJjMC4wMywwLjYzLTAuMTgsMS4yNS0wLjYsMS43M0MyMy44NywzNy4xOSwyMy4yNywzNy40NCwyMi42NiwzNy40MnogTTIyLjcxLDMzLjMyICBjLTAuNDItMC4wMi0wLjgyLDAuMTYtMS4wOSwwLjQ3Yy0wLjI5LDAuMzctMC40MywwLjgzLTAuNDEsMS4zYy0wLjAyLDAuNDYsMC4xMiwwLjkxLDAuNDEsMS4yNmMwLjI3LDAuMzEsMC42NywwLjQ4LDEuMDksMC40NyAgYzAuNDEsMC4wMiwwLjgtMC4xNCwxLjA3LTAuNDVjMC4yNy0wLjM3LDAuNDEtMC44MywwLjM4LTEuMjljMC4wMy0wLjQ2LTAuMTEtMC45Mi0wLjM4LTEuM0MyMy41MSwzMy40NywyMy4xMiwzMy4zLDIyLjcxLDMzLjMyeiIvPiYjeGE7PHBhdGggaWQ9InBhdGgxNzA3NzUiIGlua3NjYXBlOmNvbm5lY3Rvci1jdXJ2YXR1cmU9IjAiIHN0eWxlPSJmaWxsOiNGMkYyRjI7IiBkPSJNMjguMzksMzMuNTRjLTAuMTYtMC4xMS0wLjM1LTAuMTYtMC41NS0wLjE0ICBjLTAuMzEsMC4wMS0wLjU5LDAuMTctMC43NSwwLjQ0Yy0wLjIyLDAuMzUtMC4zMywwLjc2LTAuMywxLjE4djIuM2gtMC43NXYtNC41aDAuNzV2MC45NGMwLjA4LTAuMjksMC4yNC0wLjU1LDAuNDctMC43NSAgYzAuMi0wLjE3LDAuNDUtMC4yNywwLjcxLTAuMjdjMC4xNC0wLjAxLDAuMjgsMC4wMSwwLjQyLDAuMDZMMjguMzksMzMuNTR6Ii8+JiN4YTs8cGF0aCBpZD0icGF0aDE3MDc4MCIgaW5rc2NhcGU6Y29ubmVjdG9yLWN1cnZhdHVyZT0iMCIgc3R5bGU9ImZpbGw6I0YyRjJGMjsiIGQ9Ik0zMi43OCwzNS4yNWgtMy4xNyAgYy0wLjAyLDAuNDIsMC4xMSwwLjgzLDAuMzgsMS4xNWMwLjI4LDAuMjgsMC42NywwLjQzLDEuMDcsMC40MWMwLjUxLTAuMDEsMS0wLjE4LDEuMzktMC41djAuNjdjLTAuNDYsMC4zLTEuMDEsMC40Ni0xLjU2LDAuNDMgIGMtMC41NywwLjAzLTEuMTItMC4yLTEuNS0wLjYyYy0wLjM5LTAuNDktMC41OS0xLjEtMC41NS0xLjcyYy0wLjAzLTAuNjIsMC4xOC0xLjI0LDAuNTktMS43MWMwLjM4LTAuNDMsMC45My0wLjY4LDEuNS0wLjY2ICBjMC41Mi0wLjAzLDEuMDMsMC4xOCwxLjM3LDAuNTdjMC4zNSwwLjQ2LDAuNTIsMS4wMiwwLjQ4LDEuNTlWMzUuMjV6IE0zMi4wMywzNC42NGMwLjAyLTAuMzUtMC4wOS0wLjY5LTAuMy0wLjk3ICBjLTAuMjEtMC4yMy0wLjUxLTAuMzYtMC44Mi0wLjM0Yy0wLjMzLDAtMC42NCwwLjEzLTAuODYsMC4zN2MtMC4yNSwwLjI2LTAuNDEsMC41OS0wLjQ1LDAuOTVMMzIuMDMsMzQuNjR6Ii8+JiN4YTs8L3N2Zz4=;fontSize=14;" vertex="1" parent="1">
          <mxGeometry x="210" y="437" width="48" height="48" as="geometry" />
        </mxCell>
        <mxCell id="sysWO4AyaLhMZwriSP55-31" style="edgeStyle=orthogonalEdgeStyle;rounded=0;orthogonalLoop=1;jettySize=auto;html=1;entryX=0.5;entryY=0;entryDx=0;entryDy=0;fontSize=14;" edge="1" parent="1" source="sysWO4AyaLhMZwriSP55-20" target="sysWO4AyaLhMZwriSP55-9">
          <mxGeometry relative="1" as="geometry" />
        </mxCell>
        <mxCell id="sysWO4AyaLhMZwriSP55-20" value="aircrafts-app-apis" style="shape=image;verticalLabelPosition=bottom;labelBackgroundColor=#ffffff;verticalAlign=top;aspect=fixed;imageAspect=0;image=data:image/svg+xml,PHN2ZyB4bWxuczpkYz0iaHR0cDovL3B1cmwub3JnL2RjL2VsZW1lbnRzLzEuMS8iIHhtbG5zOmNjPSJodHRwOi8vY3JlYXRpdmVjb21tb25zLm9yZy9ucyMiIHhtbG5zOnJkZj0iaHR0cDovL3d3dy53My5vcmcvMTk5OS8wMi8yMi1yZGYtc3ludGF4LW5zIyIgeG1sbnM6c3ZnPSJodHRwOi8vd3d3LnczLm9yZy8yMDAwL3N2ZyIgeG1sbnM9Imh0dHA6Ly93d3cudzMub3JnLzIwMDAvc3ZnIiB4bWxuczpzb2RpcG9kaT0iaHR0cDovL3NvZGlwb2RpLnNvdXJjZWZvcmdlLm5ldC9EVEQvc29kaXBvZGktMC5kdGQiIHhtbG5zOmlua3NjYXBlPSJodHRwOi8vd3d3Lmlua3NjYXBlLm9yZy9uYW1lc3BhY2VzL2lua3NjYXBlIiB2ZXJzaW9uPSIxLjEiIGlkPSJMYXllcl8xIiB4PSIwcHgiIHk9IjBweCIgdmlld0JveD0iMCAwIDQ4IDQ3Ljk5OTk5OSIgeG1sOnNwYWNlPSJwcmVzZXJ2ZSIgc29kaXBvZGk6ZG9jbmFtZT0iYXBpLnN2ZyIgd2lkdGg9IjQ4IiBoZWlnaHQ9IjQ4IiBpbmtzY2FwZTp2ZXJzaW9uPSIwLjkyLjMgKDI0MDU1NDYsIDIwMTgtMDMtMTEpIj48bWV0YWRhdGEgaWQ9Im1ldGFkYXRhNzA1NiI+PHJkZjpSREY+PGNjOldvcmsgcmRmOmFib3V0PSIiPjxkYzpmb3JtYXQ+aW1hZ2Uvc3ZnK3htbDwvZGM6Zm9ybWF0PjxkYzp0eXBlIHJkZjpyZXNvdXJjZT0iaHR0cDovL3B1cmwub3JnL2RjL2RjbWl0eXBlL1N0aWxsSW1hZ2UiLz48ZGM6dGl0bGUvPjwvY2M6V29yaz48L3JkZjpSREY+PC9tZXRhZGF0YT48ZGVmcyBpZD0iZGVmczcwNTQiLz48c29kaXBvZGk6bmFtZWR2aWV3IHBhZ2Vjb2xvcj0iI2ZmZmZmZiIgYm9yZGVyY29sb3I9IiM2NjY2NjYiIGJvcmRlcm9wYWNpdHk9IjEiIG9iamVjdHRvbGVyYW5jZT0iMTAiIGdyaWR0b2xlcmFuY2U9IjEwIiBndWlkZXRvbGVyYW5jZT0iMTAiIGlua3NjYXBlOnBhZ2VvcGFjaXR5PSIwIiBpbmtzY2FwZTpwYWdlc2hhZG93PSIyIiBpbmtzY2FwZTp3aW5kb3ctd2lkdGg9IjE5MjAiIGlua3NjYXBlOndpbmRvdy1oZWlnaHQ9IjEwMTciIGlkPSJuYW1lZHZpZXc3MDUyIiBzaG93Z3JpZD0iZmFsc2UiIGZpdC1tYXJnaW4tdG9wPSIwIiBmaXQtbWFyZ2luLWxlZnQ9IjAiIGZpdC1tYXJnaW4tcmlnaHQ9IjAiIGZpdC1tYXJnaW4tYm90dG9tPSIwIiBpbmtzY2FwZTp6b29tPSI4LjAxODg2NzciIGlua3NjYXBlOmN4PSItMy41NzM3ODc2IiBpbmtzY2FwZTpjeT0iMTQuMDEyMDE4IiBpbmtzY2FwZTp3aW5kb3cteD0iLTgiIGlua3NjYXBlOndpbmRvdy15PSItOCIgaW5rc2NhcGU6d2luZG93LW1heGltaXplZD0iMSIgaW5rc2NhcGU6Y3VycmVudC1sYXllcj0iTGF5ZXJfMSIvPiYjeGE7PGcgaWQ9Imc3MDQ5IiB0cmFuc2Zvcm09InRyYW5zbGF0ZSgyLjNlLTQsMC43NDk3NykiPiYjeGE7CTx0aXRsZSBpZD0idGl0bGU3MDEwIj5QYWdlLTE8L3RpdGxlPiYjeGE7CTxnIGlkPSJncm91cDE3Ny0xIiB0cmFuc2Zvcm09InRyYW5zbGF0ZSg4LjMwOTc3LC0xLjUpIj4mI3hhOwkJPHRpdGxlIGlkPSJ0aXRsZTcwMTIiPkFQSTwvdGl0bGU+JiN4YTsJCTxnIGlkPSJzaGFwZTE3OC0yIiB0cmFuc2Zvcm09InRyYW5zbGF0ZSgwLC02LjgwOTc3KSI+JiN4YTsJCQk8dGl0bGUgaWQ9InRpdGxlNzAxNCI+cGF0aDY3MDM8L3RpdGxlPiYjeGE7CQkJPHBhdGggc3R5bGU9ImZpbGw6I2ZmZmZmZiIgZD0iTSAzOC45NCwzMS41NiBDIDM4Ljk0LDQ0LjQgMjguNTMsNTQuODEgMTUuNjksNTQuODEgMi44NSw1NC44MSAtNy41Niw0NC40IC03LjU2LDMxLjU2IC03LjU2LDE4LjcyIDIuODUsOC4zMSAxNS42OSw4LjMxIHYgMCBjIDEyLjg0LDAgMjMuMjUsMTAuNDEgMjMuMjUsMjMuMjUgeiIgaWQ9InBhdGg3MDE2IiBpbmtzY2FwZTpjb25uZWN0b3ItY3VydmF0dXJlPSIwIi8+JiN4YTsJCTwvZz4mI3hhOwkJPGcgaWQ9InNoYXBlMTc5LTQiIHRyYW5zZm9ybT0idHJhbnNsYXRlKDE2LjQ0MDIpIj4mI3hhOwkJCTx0aXRsZSBpZD0idGl0bGU3MDE5Ij5wYXRoNjcwNTwvdGl0bGU+JiN4YTsJCQk8cGF0aCBzdHlsZT0iZmlsbDojZTVlNWU1IiBkPSJNIDIyLjUsMjQuNzUgQyAyMi41LDM3LjU5IDEyLjA5LDQ4IC0wLjc1LDQ4IFYgMS41IGMgMTIuODQsMCAyMy4yNSwxMC40MSAyMy4yNSwyMy4yNSB6IiBpZD0icGF0aDcwMjEiIGlua3NjYXBlOmNvbm5lY3Rvci1jdXJ2YXR1cmU9IjAiLz4mI3hhOwkJPC9nPiYjeGE7CQk8ZyBpZD0ic2hhcGUxODAtNiIgdHJhbnNmb3JtPSJ0cmFuc2xhdGUoMCwtNi44MDk3NykiPiYjeGE7CQkJPHRpdGxlIGlkPSJ0aXRsZTcwMjQiPnBhdGg2NzA3PC90aXRsZT4mI3hhOwkJCTxwYXRoIHN0eWxlPSJmaWxsOm5vbmU7c3Ryb2tlOiM1NTZhOGE7c3Ryb2tlLXdpZHRoOjEuNTtzdHJva2UtbWl0ZXJsaW1pdDozIiBkPSJNIDM4Ljk0LDMxLjU2IEMgMzguOTQsNDQuNCAyOC41Myw1NC44MSAxNS42OSw1NC44MSAyLjg1LDU0LjgxIC03LjU2LDQ0LjQgLTcuNTYsMzEuNTYgLTcuNTYsMTguNzIgMi44NSw4LjMxIDE1LjY5LDguMzEgdiAwIGMgMTIuODQsMCAyMy4yNSwxMC40MSAyMy4yNSwyMy4yNSB6IiBpZD0icGF0aDcwMjYiIGlua3NjYXBlOmNvbm5lY3Rvci1jdXJ2YXR1cmU9IjAiLz4mI3hhOwkJPC9nPiYjeGE7CQk8ZyBpZD0ic2hhcGUxODEtOCIgdHJhbnNmb3JtPSJ0cmFuc2xhdGUoOC45NDAyMywtMTAuNDEpIj4mI3hhOwkJCTx0aXRsZSBpZD0idGl0bGU3MDI5Ij5wYXRoNjcwOTwvdGl0bGU+JiN4YTsJCQk8cGF0aCBzdHlsZT0iZmlsbDpub25lIiBkPSJtIC0wLjc1LDQ4IGMgMy4zNiwzLjk0IDkuMjgsNC40MSAxMy4yMiwxLjA1IDMuOTQsLTMuMzYgNC40MSwtOS4yOCAxLjA1LC0xMy4yMiAtMy4zNiwtMy45NCAtOS4yOCwtNC40MSAtMTMuMjIsLTEuMDUgLTAuMzgsMC4zMiAtMC43MywwLjY3IC0xLjA1LDEuMDUgeiIgaWQ9InBhdGg3MDMxIiBpbmtzY2FwZTpjb25uZWN0b3ItY3VydmF0dXJlPSIwIi8+JiN4YTsJCQk8cGF0aCBzdHlsZT0iZmlsbDpub25lO3N0cm9rZTojNTU2YThhO3N0cm9rZS13aWR0aDoxLjU7c3Ryb2tlLW1pdGVybGltaXQ6MyIgZD0ibSAtMC43NSw0OCBjIDMuMzYsMy45NCA5LjI4LDQuNDEgMTMuMjIsMS4wNSAzLjk0LC0zLjM2IDQuNDEsLTkuMjggMS4wNSwtMTMuMjIgLTMuMzYsLTMuOTQgLTkuMjgsLTQuNDEgLTEzLjIyLC0xLjA1IC0wLjM4LDAuMzIgLTAuNzMsMC42NyAtMS4wNSwxLjA1IiBpZD0icGF0aDcwMzMiIGlua3NjYXBlOmNvbm5lY3Rvci1jdXJ2YXR1cmU9IjAiLz4mI3hhOwkJPC9nPiYjeGE7CQk8ZyBpZD0ic2hhcGUxODItMTEiIHRyYW5zZm9ybT0idHJhbnNsYXRlKDIuMTkwMjMsLTE2LjUpIj4mI3hhOwkJCTx0aXRsZSBpZD0idGl0bGU3MDM2Ij5wb2x5bGluZTY3MTE8L3RpdGxlPiYjeGE7CQkJPHBhdGggc3R5bGU9ImZpbGw6bm9uZSIgZD0ibSAxMS4yNSw0OCBoIC0xMiBWIDI4LjUgaCAyOC41IFYgNDggaCAtNiB6IiBpZD0icGF0aDcwMzgiIGlua3NjYXBlOmNvbm5lY3Rvci1jdXJ2YXR1cmU9IjAiLz4mI3hhOwkJCTxwYXRoIHN0eWxlPSJmaWxsOm5vbmU7c3Ryb2tlOiM1NTZhOGE7c3Ryb2tlLXdpZHRoOjEuNTtzdHJva2UtbWl0ZXJsaW1pdDozIiBkPSJtIDExLjI1LDQ4IGggLTEyIFYgMjguNSBoIDI4LjUgViA0OCBoIC02IiBpZD0icGF0aDcwNDAiIGlua3NjYXBlOmNvbm5lY3Rvci1jdXJ2YXR1cmU9IjAiLz4mI3hhOwkJPC9nPiYjeGE7CQk8ZyBpZD0ic2hhcGUxODMtMTQiIHRyYW5zZm9ybT0idHJhbnNsYXRlKDExLjg5NTIsLTExLjYyNSkiPiYjeGE7CQkJPHRpdGxlIGlkPSJ0aXRsZTcwNDMiPmNpcmNsZTY3MTM8L3RpdGxlPiYjeGE7CQkJPGNpcmNsZSBzdHlsZT0iZmlsbDojMmJjN2Y0IiBjeD0iNC4xMzAwMDAxIiBjeT0iNDMuMTMwMDAxIiBpZD0iZWxsaXBzZTcwNDUiIHI9IjQuODgwMDAwMSIvPiYjeGE7CQk8L2c+JiN4YTsJPC9nPiYjeGE7PC9nPiYjeGE7PC9zdmc+;fontSize=14;" vertex="1" parent="1">
          <mxGeometry x="510" y="437" width="48" height="48" as="geometry" />
        </mxCell>
        <mxCell id="sysWO4AyaLhMZwriSP55-24" value="" style="aspect=fixed;html=1;points=[];align=center;image;fontSize=12;image=img/lib/azure2/compute/Function_Apps.svg;" vertex="1" parent="1">
          <mxGeometry x="1248.37" y="477" width="52.13" height="46" as="geometry" />
        </mxCell>
        <mxCell id="sysWO4AyaLhMZwriSP55-26" value="client secret (apim)" style="aspect=fixed;html=1;points=[];align=center;image;fontSize=12;image=img/lib/azure2/security/Keys.svg;" vertex="1" parent="1">
          <mxGeometry x="213" y="280" width="49.26" height="52" as="geometry" />
        </mxCell>
        <UserObject label="Function: ReadParts" link="https://func-aircrafts-app.azurewebsites.net/api" id="sysWO4AyaLhMZwriSP55-29">
          <mxCell style="text;whiteSpace=wrap;html=1;fontSize=14;" vertex="1" parent="1">
            <mxGeometry x="1305" y="477" width="155" height="30" as="geometry" />
          </mxCell>
        </UserObject>
        <UserObject label="https://func-aircrafts-app.azurewebsites.net/api" link="https://func-aircrafts-app.azurewebsites.net/api" id="sysWO4AyaLhMZwriSP55-30">
          <mxCell style="text;whiteSpace=wrap;html=1;fontSize=14;" vertex="1" parent="1">
            <mxGeometry x="1230" y="384" width="320" height="30" as="geometry" />
          </mxCell>
        </UserObject>
        <mxCell id="sysWO4AyaLhMZwriSP55-33" value="" style="aspect=fixed;html=1;points=[];align=center;image;fontSize=12;image=img/lib/azure2/identity/Azure_Active_Directory.svg;" vertex="1" parent="1">
          <mxGeometry x="20" y="137" width="70" height="64" as="geometry" />
        </mxCell>
        <mxCell id="sysWO4AyaLhMZwriSP55-35" value="JWT Token" style="whiteSpace=wrap;html=1;fillColor=#dae8fc;fontSize=14;strokeColor=#6c8ebf;" vertex="1" parent="1">
          <mxGeometry x="406.75" y="465.5" width="52" height="59" as="geometry" />
        </mxCell>
        <mxCell id="sysWO4AyaLhMZwriSP55-36" value="" style="whiteSpace=wrap;html=1;fillColor=none;fontSize=14;" vertex="1" parent="1">
          <mxGeometry x="1230" y="58.82" width="430" height="300" as="geometry" />
        </mxCell>
        <mxCell id="sysWO4AyaLhMZwriSP55-37" value="func-aircrafts-app" style="aspect=fixed;html=1;points=[];align=center;image;fontSize=14;image=img/lib/azure2/identity/App_Registrations.svg;" vertex="1" parent="1">
          <mxGeometry x="1373" y="108.82" width="41.34" height="42" as="geometry" />
        </mxCell>
        <mxCell id="sysWO4AyaLhMZwriSP55-39" value="Role: &lt;font color=&quot;#0000ff&quot;&gt;Role.Parts.AllowRead&lt;/font&gt;" style="text;html=1;resizable=0;autosize=1;align=center;verticalAlign=middle;points=[];fillColor=none;strokeColor=none;rounded=0;fontSize=14;" vertex="1" parent="1">
          <mxGeometry x="1320" y="278.82" width="190" height="20" as="geometry" />
        </mxCell>
        <mxCell id="sysWO4AyaLhMZwriSP55-40" style="edgeStyle=orthogonalEdgeStyle;rounded=0;orthogonalLoop=1;jettySize=auto;html=1;exitX=0.5;exitY=1;exitDx=0;exitDy=0;fontSize=14;" edge="1" parent="1" source="sysWO4AyaLhMZwriSP55-36" target="sysWO4AyaLhMZwriSP55-36">
          <mxGeometry relative="1" as="geometry" />
        </mxCell>
        <mxCell id="sysWO4AyaLhMZwriSP55-41" value="" style="whiteSpace=wrap;html=1;fillColor=none;fontSize=14;" vertex="1" parent="1">
          <mxGeometry x="850" y="60" width="200" height="300" as="geometry" />
        </mxCell>
        <mxCell id="sysWO4AyaLhMZwriSP55-42" value="APIM user-identity" style="aspect=fixed;html=1;points=[];align=center;image;fontSize=14;image=img/lib/azure2/identity/App_Registrations.svg;" vertex="1" parent="1">
          <mxGeometry x="929.3299999999999" y="114" width="41.34" height="42" as="geometry" />
        </mxCell>
        <mxCell id="sysWO4AyaLhMZwriSP55-43" value="&lt;a href=&quot;https://docs.microsoft.com/en-gb/azure/app-service/overview-authentication-authorization#identity-providers&quot;&gt;Authentication and authorization - Azure App Service | Microsoft Docs&lt;/a&gt;" style="text;whiteSpace=wrap;html=1;fontSize=14;" vertex="1" parent="1">
          <mxGeometry x="1210" y="650" width="460" height="30" as="geometry" />
        </mxCell>
        <mxCell id="sysWO4AyaLhMZwriSP55-44" value="&lt;a href=&quot;https://docs.microsoft.com/en-gb/azure/app-service/configure-authentication-provider-aad&quot;&gt;Configure Azure AD authentication - Azure App Service | Microsoft Docs&lt;/a&gt;" style="text;whiteSpace=wrap;html=1;fontSize=14;" vertex="1" parent="1">
          <mxGeometry x="1210" y="690" width="470" height="30" as="geometry" />
        </mxCell>
        <mxCell id="sysWO4AyaLhMZwriSP55-45" value="1- AuthN/AuthZ is taken care of by App Service" style="text;html=1;resizable=0;autosize=1;align=center;verticalAlign=middle;points=[];fillColor=none;strokeColor=none;rounded=0;fontSize=14;" vertex="1" parent="1">
          <mxGeometry x="1169" y="630" width="310" height="20" as="geometry" />
        </mxCell>
      </root>
    </mxGraphModel>
  </diagram>
</mxfile>
